<?xml version="1.0" encoding="UTF-8" standalone="no"?>
<!-- Created with Inkscape (http://www.inkscape.org/) -->

<svg
   xmlns:dc="http://purl.org/dc/elements/1.1/"
   xmlns:cc="http://creativecommons.org/ns#"
   xmlns:rdf="http://www.w3.org/1999/02/22-rdf-syntax-ns#"
   xmlns:svg="http://www.w3.org/2000/svg"
   xmlns="http://www.w3.org/2000/svg"
   xmlns:xlink="http://www.w3.org/1999/xlink"
   xmlns:sodipodi="http://sodipodi.sourceforge.net/DTD/sodipodi-0.dtd"
   xmlns:inkscape="http://www.inkscape.org/namespaces/inkscape"
   width="800"
   height="800"
   viewBox="0 0 211.66666 211.66667"
   version="1.1"
   id="svg8"
   inkscape:version="0.92.3 (2405546, 2018-03-11)"
   sodipodi:docname="LibreBadge logo card idea.svg">
  <defs
     id="defs2">
    <linearGradient
       id="linearGradient2795">
      <stop
         id="stop2797"
         offset="0"
         style="stop-color:#b8b8b8;stop-opacity:0.49803922" />
      <stop
         id="stop2799"
         offset="1"
         style="stop-color:#7f7f7f;stop-opacity:0" />
    </linearGradient>
    <linearGradient
       id="linearGradient2787">
      <stop
         id="stop2789"
         offset="0"
         style="stop-color:#7f7f7f;stop-opacity:0.5" />
      <stop
         id="stop2791"
         offset="1"
         style="stop-color:#7f7f7f;stop-opacity:0" />
    </linearGradient>
    <linearGradient
       id="linearGradient3676">
      <stop
         id="stop3678"
         offset="0"
         style="stop-color:#b2b2b2;stop-opacity:0.5" />
      <stop
         id="stop3680"
         offset="1"
         style="stop-color:#b3b3b3;stop-opacity:0" />
    </linearGradient>
    <linearGradient
       id="linearGradient3236">
      <stop
         id="stop3244"
         offset="0"
         style="stop-color:#f4f4f4;stop-opacity:1" />
      <stop
         id="stop3240"
         offset="1"
         style="stop-color:#ffffff;stop-opacity:1" />
    </linearGradient>
    <linearGradient
       id="linearGradient4671">
      <stop
         id="stop4673"
         offset="0"
         style="stop-color:#ffd43b;stop-opacity:1" />
      <stop
         id="stop4675"
         offset="1"
         style="stop-color:#ffe873;stop-opacity:1" />
    </linearGradient>
    <linearGradient
       id="linearGradient4689">
      <stop
         id="stop4691"
         offset="0"
         style="stop-color:#5a9fd4;stop-opacity:1" />
      <stop
         id="stop4693"
         offset="1"
         style="stop-color:#306998;stop-opacity:1" />
    </linearGradient>
    <linearGradient
       gradientTransform="translate(100.2702,99.61116)"
       gradientUnits="userSpaceOnUse"
       xlink:href="#linearGradient4671"
       id="linearGradient2987"
       y2="144.75717"
       x2="-65.308502"
       y1="144.75717"
       x1="224.23996" />
    <linearGradient
       gradientTransform="translate(100.2702,99.61116)"
       gradientUnits="userSpaceOnUse"
       xlink:href="#linearGradient4689"
       id="linearGradient2990"
       y2="76.313133"
       x2="26.670298"
       y1="77.475983"
       x1="172.94208" />
    <linearGradient
       gradientTransform="matrix(0.562541,0,0,0.567972,-11.5974,-7.60954)"
       gradientUnits="userSpaceOnUse"
       xlink:href="#linearGradient4671"
       id="linearGradient2255"
       y2="144.75717"
       x2="-65.308502"
       y1="144.75717"
       x1="224.23996" />
    <linearGradient
       gradientTransform="matrix(0.562541,0,0,0.567972,-11.5974,-7.60954)"
       gradientUnits="userSpaceOnUse"
       xlink:href="#linearGradient4689"
       id="linearGradient2258"
       y2="76.313133"
       x2="26.670298"
       y1="76.176224"
       x1="172.94208" />
    <radialGradient
       gradientTransform="matrix(1,0,0,0.177966,0,108.7434)"
       gradientUnits="userSpaceOnUse"
       xlink:href="#linearGradient2795"
       id="radialGradient2801"
       fy="132.28575"
       fx="61.518883"
       r="29.036913"
       cy="132.28575"
       cx="61.518883" />
    <linearGradient
       gradientTransform="matrix(0.562541,0,0,0.567972,-9.399749,-5.305317)"
       gradientUnits="userSpaceOnUse"
       xlink:href="#linearGradient4671"
       id="linearGradient1475"
       y2="137.27299"
       x2="112.03144"
       y1="192.35176"
       x1="150.96111" />
    <linearGradient
       gradientTransform="matrix(0.562541,0,0,0.567972,-9.399749,-5.305317)"
       gradientUnits="userSpaceOnUse"
       xlink:href="#linearGradient4689"
       id="linearGradient1478"
       y2="114.39767"
       x2="135.66525"
       y1="20.603781"
       x1="26.648937" />
    <radialGradient
       gradientTransform="matrix(2.382716e-8,-0.296405,1.43676,4.683673e-7,-128.544,150.5202)"
       gradientUnits="userSpaceOnUse"
       xlink:href="#linearGradient2795"
       id="radialGradient1480"
       fy="132.28575"
       fx="61.518883"
       r="29.036913"
       cy="132.28575"
       cx="61.518883" />
  </defs>
  <sodipodi:namedview
     id="base"
     pagecolor="#ffffff"
     bordercolor="#666666"
     borderopacity="1.0"
     inkscape:pageopacity="0.0"
     inkscape:pageshadow="2"
     inkscape:zoom="1.28"
     inkscape:cx="527.5567"
     inkscape:cy="353.2302"
     inkscape:document-units="mm"
     inkscape:current-layer="layer1"
     showgrid="true"
     units="px"
     inkscape:snap-perpendicular="true"
     inkscape:snap-tangential="true"
     inkscape:window-width="1920"
     inkscape:window-height="1017"
     inkscape:window-x="-8"
     inkscape:window-y="1019"
     inkscape:window-maximized="1">
    <inkscape:grid
       type="xygrid"
       id="grid10" />
  </sodipodi:namedview>
  <metadata
     id="metadata5">
    <rdf:RDF>
      <cc:Work
         rdf:about="">
        <dc:format>image/svg+xml</dc:format>
        <dc:type
           rdf:resource="http://purl.org/dc/dcmitype/StillImage" />
        <dc:title></dc:title>
      </cc:Work>
    </rdf:RDF>
  </metadata>
  <g
     inkscape:label="Layer 1"
     inkscape:groupmode="layer"
     id="layer1"
     transform="translate(0,-85.333317)">
    <rect
       style="fill:#007bff;fill-opacity:1;stroke-width:0.2220334"
       id="rect3987-5"
       width="66.145836"
       height="9.260417"
       x="84.666656"
       y="221.59373" />
    <g
       style="fill:currentColor"
       id="cardOutline"
       transform="matrix(0,6.614583,-6.614583,0,183.88541,123.6979)">
      <path
         id="outlinePath"
         d="M 16,5 H 4 A 1,1 0 0 0 3,6 v 8 a 1,1 0 0 0 1,1 h 12 a 1,1 0 0 0 1,-1 V 6 A 1,1 0 0 0 16,5 Z M 4,4 A 2,2 0 0 0 2,6 v 8 a 2,2 0 0 0 2,2 h 12 a 2,2 0 0 0 2,-2 V 6 A 2,2 0 0 0 16,4 Z"
         inkscape:connector-curvature="0"
         style="clip-rule:evenodd;fill-rule:evenodd"
         inkscape:label="#path3715" />
    </g>
    <g
       id="g4805"
       transform="translate(-1.0583312,3.9687317)">
      <g
         inkscape:label="#g3745"
         transform="matrix(2.0091797,0,0,2.0091796,82.566419,152.5541)"
         id="person-fill"
         style="fill:currentColor">
        <path
           inkscape:label="#path3734"
           style="clip-rule:evenodd;fill-rule:evenodd"
           inkscape:connector-curvature="0"
           d="m 5,16 c 0,0 -1,0 -1,-1 0,-1 1,-4 6,-4 5,0 6,3 6,4 0,1 -1,1 -1,1 z m 5,-6 a 3,3 0 1 0 0,-6 3,3 0 0 0 0,6 z"
           id="person-fillPath" />
      </g>
      <g
         inkscape:label="#g3758"
         transform="matrix(2.0091797,0,0,2.0091797,113.88294,153.3389)"
         id="shield-fill"
         style="fill:currentColor">
        <path
           inkscape:label="#path3747"
           style="clip-rule:evenodd;fill-rule:evenodd"
           inkscape:connector-curvature="0"
           d="M 7.187,3.025 C 8.23,2.749 9.337,2.5 10,2.5 c 0.662,0 1.77,0.249 2.813,0.525 1.066,0.282 2.14,0.614 2.772,0.815 0.528,0.168 0.926,0.623 1.003,1.184 0.573,4.197 -0.756,7.307 -2.367,9.365 a 11.192,11.192 0 0 1 -2.418,2.3 6.942,6.942 0 0 1 -1.007,0.586 C 10.526,17.399 10.238,17.5 10,17.5 9.762,17.5 9.473,17.399 9.204,17.275 A 6.908,6.908 0 0 1 8.197,16.689 11.192,11.192 0 0 1 5.779,14.389 C 4.168,12.331 2.839,9.221 3.412,5.024 A 1.454,1.454 0 0 1 4.415,3.84 61.113,61.113 0 0 1 7.187,3.025 Z"
           id="shield-fillPath" />
      </g>
    </g>
    <flowRoot
       xml:space="preserve"
       id="flowRoot3776"
       style="fill:black;fill-opacity:1;stroke:none;font-family:sans-serif;font-style:normal;font-weight:normal;font-size:40px;line-height:1.25;letter-spacing:0px;word-spacing:0px"><flowRegion
         id="flowRegion3778"><rect
           id="rect3780"
           width="420"
           height="120"
           x="-40"
           y="360" /></flowRegion><flowPara
         id="flowPara3782"></flowPara></flowRoot>    <flowRoot
       xml:space="preserve"
       id="flowRoot3784"
       style="fill:black;fill-opacity:1;stroke:none;font-family:sans-serif;font-style:normal;font-weight:normal;font-size:40px;line-height:1.25;letter-spacing:0px;word-spacing:0px"><flowRegion
         id="flowRegion3786"><rect
           id="rect3788"
           width="20"
           height="65"
           x="535"
           y="440" /></flowRegion><flowPara
         id="flowPara3790"></flowPara></flowRoot>    <flowRoot
       xml:space="preserve"
       id="flowRoot3798"
       style="fill:black;fill-opacity:1;stroke:none;font-family:sans-serif;font-style:normal;font-weight:normal;font-size:40px;line-height:1.25;letter-spacing:0px;word-spacing:0px"><flowRegion
         id="flowRegion3800"><rect
           id="rect3802"
           width="80"
           height="65"
           x="370"
           y="440" /></flowRegion><flowPara
         id="flowPara3804"></flowPara></flowRoot>    <rect
       style="fill:#007bff;fill-opacity:1;stroke-width:0.2220334"
       id="rect3987"
       width="66.145836"
       height="9.260417"
       x="84.666664"
       y="148.83331" />
    <flowRoot
       xml:space="preserve"
       id="flowRoot3760-2"
       style="font-style:normal;font-variant:normal;font-weight:bold;font-stretch:normal;font-size:20.00020599px;line-height:1.25;font-family:sans-serif;-inkscape-font-specification:'sans-serif, Bold';font-variant-ligatures:normal;font-variant-caps:normal;font-variant-numeric:normal;font-feature-settings:normal;text-align:start;letter-spacing:0px;word-spacing:0px;writing-mode:lr-tb;text-anchor:start;fill:#ffffff;fill-opacity:1;stroke:none"
       transform="matrix(0.462346,0,0,0.46416923,-72.48451,-65.853084)"><flowRegion
         id="flowRegion3762-9"
         style="font-style:normal;font-variant:normal;font-weight:bold;font-stretch:normal;font-size:20.00020599px;font-family:sans-serif;-inkscape-font-specification:'sans-serif, Bold';font-variant-ligatures:normal;font-variant-caps:normal;font-variant-numeric:normal;font-feature-settings:normal;text-align:start;writing-mode:lr-tb;text-anchor:start;fill:#ffffff;fill-opacity:1"><rect
           id="rect3764-9"
           width="145.88884"
           height="28.763456"
           x="340"
           y="460"
           style="font-style:normal;font-variant:normal;font-weight:bold;font-stretch:normal;font-size:20.00020599px;font-family:sans-serif;-inkscape-font-specification:'sans-serif, Bold';font-variant-ligatures:normal;font-variant-caps:normal;font-variant-numeric:normal;font-feature-settings:normal;text-align:start;writing-mode:lr-tb;text-anchor:start;fill:#ffffff;fill-opacity:1" /></flowRegion><flowPara
         id="flowPara3836">Energized ID</flowPara></flowRoot>    <flowRoot
       xml:space="preserve"
       id="flowRoot3838"
       style="fill:black;fill-opacity:1;stroke:none;font-family:sans-serif;font-style:normal;font-weight:normal;font-size:40px;line-height:1.25;letter-spacing:0px;word-spacing:0px"><flowRegion
         id="flowRegion3840"><rect
           id="rect3842"
           width="30"
           height="45"
           x="450"
           y="245" /></flowRegion><flowPara
         id="flowPara3844"></flowPara></flowRoot>    <g
       style="overflow:visible"
       id="g3903"
       transform="matrix(0.05806052,0,0,0.05806052,107.23118,221.66682)">
      <g
         id="g3886"
         style="fill:#ffffff;fill-opacity:1"
         transform="translate(-5.5491407)">
	<g
   id="g3884"
   style="fill:#ffffff;fill-opacity:1">
		<path
   id="path3872"
   d="M 51.464,0 H 75.336 V 110.496 C 63.09,112.821 54.099,113.751 44.334,113.751 15.191,113.75 0,100.576 0,75.308 0,50.971 16.122,35.161 41.078,35.161 c 3.875,0 6.82,0.309 10.386,1.239 z m 0,55.62 c -2.79,-0.929 -5.115,-1.239 -8.06,-1.239 -12.091,0 -19.067,7.441 -19.067,20.461 0,12.712 6.666,19.687 18.912,19.687 2.634,0 4.805,-0.155 8.215,-0.619 z"
   inkscape:connector-curvature="0"
   style="fill:#ffffff;fill-opacity:1" />

		<path
   id="path3874"
   d="m 113.312,36.865 v 55.338 c 0,19.067 -1.395,28.212 -5.58,36.118 -3.876,7.597 -8.992,12.401 -19.532,17.672 L 66.033,135.452 c 10.541,-4.96 15.656,-9.299 18.911,-15.967 3.411,-6.82 4.497,-14.726 4.497,-35.497 V 36.865 Z M 89.441,0.127 h 23.871 V 24.619 H 89.441 Z"
   inkscape:connector-curvature="0"
   style="fill:#ffffff;fill-opacity:1" />

		<path
   id="path3876"
   d="m 127.731,42.29 c 10.542,-4.959 20.617,-7.129 31.623,-7.129 12.246,0 20.306,3.254 23.872,9.61 2.014,3.565 2.634,8.215 2.634,18.137 v 48.517 c -10.697,1.55 -24.182,2.636 -34.102,2.636 -19.996,0 -28.988,-6.978 -28.988,-22.478 0,-16.742 11.936,-24.492 41.234,-26.973 v -5.27 c 0,-4.34 -2.17,-5.889 -8.216,-5.889 -8.835,0 -18.756,2.48 -28.058,7.286 V 42.29 Z m 37.358,37.978 c -15.812,1.55 -20.927,4.031 -20.927,10.231 0,4.65 2.946,6.82 9.456,6.82 3.566,0 6.82,-0.309 11.471,-1.084 z"
   inkscape:connector-curvature="0"
   style="fill:#ffffff;fill-opacity:1" />

		<path
   id="path3878"
   d="m 197.487,40.585 c 14.105,-3.72 25.731,-5.424 37.512,-5.424 12.246,0 21.082,2.789 26.354,8.215 4.96,5.114 6.509,10.694 6.509,22.632 V 112.82 H 243.99 V 66.938 c 0,-9.145 -3.1,-12.557 -11.625,-12.557 -3.255,0 -6.2,0.31 -11.007,1.705 v 56.734 h -23.871 z"
   inkscape:connector-curvature="0"
   style="fill:#ffffff;fill-opacity:1" />

		<path
   id="path3880"
   d="m 277.142,125.842 c 8.372,4.34 16.742,6.354 25.577,6.354 15.655,0 22.321,-6.354 22.321,-21.546 0,-0.155 0,-0.31 0,-0.465 -4.65,2.324 -9.301,3.255 -15.5,3.255 -20.927,0 -34.26,-13.796 -34.26,-35.652 0,-27.129 19.688,-42.473 54.564,-42.473 10.232,0 19.688,1.084 31.159,3.409 l -8.174,17.219 c -6.356,-1.24 -0.509,-0.166 -5.312,-0.631 v 2.481 l 0.309,10.074 0.154,13.022 c 0.155,3.254 0.155,6.51 0.311,9.765 0,2.945 0,4.341 0,6.511 0,20.462 -1.705,30.072 -6.82,37.977 -7.441,11.627 -20.307,17.362 -38.598,17.362 -9.301,0 -17.36,-1.395 -25.732,-4.651 v -22.011 z m 47.434,-71.306 c -0.31,0 -0.619,0 -0.774,0 h -1.706 c -4.649,-0.155 -10.074,1.084 -13.796,3.409 -5.734,3.256 -8.681,9.147 -8.681,17.517 0,11.937 5.892,18.757 16.432,18.757 3.255,0 5.891,-0.621 8.99,-1.55 v -1.706 -6.509 c 0,-2.79 -0.154,-5.892 -0.154,-9.146 l -0.154,-11.005 -0.156,-7.906 v -1.861 z"
   inkscape:connector-curvature="0"
   style="fill:#ffffff;fill-opacity:1" />

		<path
   id="path3882"
   d="m 398.062,34.85 c 23.871,0 38.443,15.037 38.443,39.373 0,24.958 -15.19,40.614 -39.373,40.614 -23.873,0 -38.599,-15.037 -38.599,-39.218 10e-4,-25.114 15.193,-40.769 39.529,-40.769 z m -0.467,60.764 c 9.147,0 14.573,-7.596 14.573,-20.772 0,-13.02 -5.271,-20.771 -14.415,-20.771 -9.457,0 -14.884,7.597 -14.884,20.771 10e-4,13.177 5.427,20.772 14.726,20.772 z"
   inkscape:connector-curvature="0"
   style="fill:#ffffff;fill-opacity:1" />

	</g>

</g>
    </g>
    <g
       id="g2303"
       transform="matrix(0.11498935,0,0,0.11498935,89.228015,201.07207)">
      <path
         d="m 184.61344,61.929363 c 0,-14.56215 -4.15226,-22.03817 -12.45678,-22.44755 -3.30427,-0.15595 -6.53055,0.37039 -9.66912,1.58878 -2.505,0.89673 -4.19124,1.78372 -5.07823,2.68045 v 34.75812 c 5.31216,3.33351 10.02976,4.88329 14.14303,4.63962 8.70415,-0.57508 13.0611,-7.64172 13.0611,-21.21942 z m 10.24419,0.60432 c 0,7.39804 -1.73498,13.53871 -5.22444,18.422 -3.88909,5.5266 -9.27923,8.37275 -16.17042,8.52871 -5.1952,0.1657 -10.54635,-1.46207 -16.05346,-4.87355 v 31.590317 l -8.90884,-3.17755 V 42.903043 c 1.46206,-1.79346 3.34325,-3.3335 5.62407,-4.63961 5.30242,-3.08983 11.74524,-4.67861 19.32848,-4.75658 l 0.12671,0.12671 c 6.93018,-0.08773 12.27159,2.75843 16.02422,8.5287 3.4992,5.29267 5.25368,12.07665 5.25368,20.37142 z"
         style="fill:#646464;fill-opacity:1"
         id="path46"
         inkscape:connector-curvature="0" />
      <path
         d="m 249.30487,83.265743 c 0,9.92254 -0.9942,16.794237 -2.9826,20.615097 -1.99816,3.82086 -5.79952,6.8717 -11.41385,9.14277 -4.55189,1.79346 -9.47417,2.76817 -14.75709,2.93387 l -1.47181,-5.61432 c 5.37064,-0.73103 9.15252,-1.46207 11.34561,-2.1931 4.31796,-1.46206 7.28108,-3.70389 8.90884,-6.706 1.30611,-2.446517 1.94942,-7.115367 1.94942,-14.026057 v -2.3198 c -6.09193,2.76817 -12.47628,4.14251 -19.15303,4.14251 -4.38619,0 -8.25579,-1.37434 -11.58929,-4.14251 -3.74289,-3.01186 -5.61433,-6.83272 -5.61433,-11.46258 v -37.07793 l 8.90884,-3.05084 v 37.3216 c 0,3.98656 1.28662,7.0569 3.85985,9.21101 2.57323,2.1541 5.90674,3.18729 9.99077,3.10932 4.08403,-0.08773 8.46047,-1.66676 13.10983,-4.75658 v -43.54025 h 8.90884 z"
         style="fill:#646464;fill-opacity:1"
         id="path48"
         inkscape:connector-curvature="0" />
      <path
         d="m 284.08249,88.997033 c -1.06243,0.08772 -2.03714,0.12671 -2.93387,0.12671 -5.03925,0 -8.96733,-1.19889 -11.77449,-3.60642 -2.79742,-2.40753 -4.20099,-5.73129 -4.20099,-9.97127 v -35.08953 h -6.10168 v -5.60457 h 6.10168 v -14.88381 l 8.89909,-3.16781 v 18.05162 h 10.01026 v 5.60457 h -10.01026 v 34.84585 c 0,3.34325 0.89673,5.71179 2.6902,7.09588 1.54004,1.14041 3.98656,1.79347 7.32006,1.95917 z"
         style="fill:#646464;fill-opacity:1"
         id="path50"
         inkscape:connector-curvature="0" />
      <path
         d="m 338.02288,88.266003 h -8.90884 v -34.38773 c 0,-3.49921 -0.81876,-6.51106 -2.44651,-9.02581 -1.88119,-2.84615 -4.49342,-4.26923 -7.84641,-4.26923 -4.08404,0 -9.19152,2.15411 -15.32242,6.46233 v 41.22044 h -8.90885 V 6.0687929 l 8.90885,-2.80716 V 40.700203 c 5.6923,-4.14251 11.91093,-6.21864 18.66566,-6.21864 4.7176,0 8.53846,1.58877 11.46258,4.75658 2.93388,3.1678 4.39594,7.11537 4.39594,11.83296 z"
         style="fill:#646464;fill-opacity:1"
         id="path52"
         inkscape:connector-curvature="0" />
      <path
         d="m 385.37424,60.525783 c 0,-5.59483 -1.06242,-10.21495 -3.17755,-13.87011 -2.51474,-4.45442 -6.42332,-6.80347 -11.70625,-7.04715 -9.76658,0.56534 -14.64012,7.56375 -14.64012,20.97574 0,6.15042 1.01369,11.28713 3.06057,15.41015 2.61223,5.25368 6.53056,7.84641 11.755,7.75869 9.80557,-0.07798 14.70835,-7.81717 14.70835,-23.22732 z m 9.75685,0.05848 c 0,7.96338 -2.03714,14.5914 -6.10168,19.88407 -4.47391,5.92623 -10.65357,8.89909 -18.53897,8.89909 -7.81716,0 -13.90909,-2.97286 -18.30503,-8.89909 -3.98656,-5.29267 -5.97497,-11.92069 -5.97497,-19.88407 0,-7.48576 2.15411,-13.78238 6.46232,-18.90935 4.5519,-5.43888 10.53661,-8.16806 17.93464,-8.16806 7.39805,0 13.42174,2.72918 18.06137,8.16806 4.3082,5.12697 6.46232,11.42359 6.46232,18.90935 z"
         style="fill:#646464;fill-opacity:1"
         id="path54"
         inkscape:connector-curvature="0" />
      <path
         d="m 446.20583,88.266003 h -8.90884 v -36.33715 c 0,-3.98656 -1.19889,-7.09588 -3.59667,-9.33772 -2.39779,-2.23208 -5.59483,-3.31401 -9.58139,-3.22628 -4.23023,0.07798 -8.25579,1.46206 -12.07664,4.14251 v 44.75864 h -8.90884 v -45.86006 c 5.12697,-3.73313 9.84456,-6.16991 14.15276,-7.31032 4.06455,-1.06243 7.65148,-1.58877 10.74131,-1.58877 2.11512,0 4.10352,0.20469 5.97496,0.61406 3.49921,0.80901 6.34535,2.31006 8.53845,4.51291 2.44651,2.43677 3.6649,5.3609 3.6649,8.78212 z"
         style="fill:#646464;fill-opacity:1"
         id="path56"
         inkscape:connector-curvature="0" />
      <path
         d="m 60.510156,6.3979729 c -4.583653,0.021298 -8.960939,0.4122177 -12.8125,1.09375 C 36.35144,9.4962267 34.291407,13.691825 34.291406,21.429223 v 10.21875 h 26.8125 v 3.40625 h -26.8125 -10.0625 c -7.792459,0 -14.6157592,4.683717 -16.7500002,13.59375 -2.46182,10.212966 -2.5710151,16.586023 0,27.25 1.9059283,7.937852 6.4575432,13.593748 14.2500002,13.59375 h 9.21875 v -12.25 c 0,-8.849902 7.657144,-16.656248 16.75,-16.65625 h 26.78125 c 7.454951,0 13.406253,-6.138164 13.40625,-13.625 v -25.53125 c 0,-7.266339 -6.12998,-12.7247775 -13.40625,-13.9375001 -4.605987,-0.7667253 -9.385097,-1.1150483 -13.96875,-1.09375 z m -14.5,8.2187501 c 2.769547,0 5.03125,2.298646 5.03125,5.125 -2e-6,2.816336 -2.261703,5.09375 -5.03125,5.09375 -2.779476,-1e-6 -5.03125,-2.277415 -5.03125,-5.09375 -1e-6,-2.826353 2.251774,-5.125 5.03125,-5.125 z"
         style="fill:url(#linearGradient1478);fill-opacity:1"
         id="path1948"
         inkscape:connector-curvature="0" />
      <path
         d="m 91.228906,35.054223 v 11.90625 c 0,9.230755 -7.825895,16.999999 -16.75,17 h -26.78125 c -7.335833,0 -13.406249,6.278483 -13.40625,13.625 v 25.531247 c 0,7.26634 6.318588,11.54032 13.40625,13.625 8.487331,2.49561 16.626237,2.94663 26.78125,0 6.750155,-1.95439 13.406253,-5.88761 13.40625,-13.625 V 92.897973 h -26.78125 v -3.40625 h 26.78125 13.406254 c 7.79246,0 10.69625,-5.435408 13.40624,-13.59375 2.79933,-8.398886 2.68022,-16.475776 0,-27.25 -1.92578,-7.757441 -5.60387,-13.59375 -13.40624,-13.59375 z m -15.0625,64.65625 c 2.779478,3e-6 5.03125,2.277417 5.03125,5.093747 -2e-6,2.82635 -2.251775,5.125 -5.03125,5.125 -2.76955,0 -5.03125,-2.29865 -5.03125,-5.125 2e-6,-2.81633 2.261697,-5.093747 5.03125,-5.093747 z"
         style="fill:url(#linearGradient1475);fill-opacity:1"
         id="path1950"
         inkscape:connector-curvature="0" />
      <path
         d="m 463.5544,26.909383 h 1.56195 v -9.79624 h 3.70013 v -1.16766 h -8.96221 v 1.16766 h 3.70013 v 9.79624 m 6.64702,0 h 1.33447 v -8.94703 l 2.89641,8.945906 h 1.48569 l 3.01816,-8.915576 v 8.9167 h 1.45579 v -10.9639 h -1.92589 l -3.29831,9.392857 -2.81297,-9.392857 h -2.15335 v 10.9639"
         style="font-style:normal;font-weight:normal;font-size:15.16445827px;line-height:125%;font-family:'Bitstream Vera Sans';fill:#646464;fill-opacity:1;stroke:none;stroke-width:1px;stroke-linecap:butt;stroke-linejoin:miter;stroke-opacity:1"
         id="text3004"
         inkscape:connector-curvature="0" />
      <path
         d="m 110.46717,132.28575 a 48.948285,8.6066788 0 1 1 -97.896571,0 48.948285,8.6066788 0 1 1 97.896571,0 z"
         transform="matrix(0.73406,0,0,0.809524,16.24958,27.00935)"
         style="opacity:0.44382019;fill:url(#radialGradient1480);fill-opacity:1;fill-rule:nonzero;stroke:none;stroke-width:20;stroke-miterlimit:4;stroke-dasharray:none;stroke-opacity:1"
         id="path1894"
         inkscape:connector-curvature="0" />
    </g>
  </g>
</svg>
