<?xml version="1.0" encoding="UTF-8" standalone="no"?>
<!-- Created with Inkscape (http://www.inkscape.org/) -->

<svg
   xmlns:dc="http://purl.org/dc/elements/1.1/"
   xmlns:cc="http://creativecommons.org/ns#"
   xmlns:rdf="http://www.w3.org/1999/02/22-rdf-syntax-ns#"
   xmlns:svg="http://www.w3.org/2000/svg"
   xmlns="http://www.w3.org/2000/svg"
   xmlns:sodipodi="http://sodipodi.sourceforge.net/DTD/sodipodi-0.dtd"
   xmlns:inkscape="http://www.inkscape.org/namespaces/inkscape"
   width="210mm"
   height="297mm"
   viewBox="0 0 210 297"
   version="1.1"
   id="svg4853"
   inkscape:version="0.92.3 (2405546, 2018-03-11)"
   sodipodi:docname="energized-id-django logo text idea.svg">
  <defs
     id="defs4847" />
  <sodipodi:namedview
     id="base"
     pagecolor="#ffffff"
     bordercolor="#666666"
     borderopacity="1.0"
     inkscape:pageopacity="0.0"
     inkscape:pageshadow="2"
     inkscape:zoom="3.959798"
     inkscape:cx="424.16496"
     inkscape:cy="692.08584"
     inkscape:document-units="mm"
     inkscape:current-layer="layer1"
     showgrid="true"
     inkscape:snap-text-baseline="false"
     inkscape:window-width="1920"
     inkscape:window-height="1017"
     inkscape:window-x="-8"
     inkscape:window-y="1019"
     inkscape:window-maximized="1">
    <inkscape:grid
       type="xygrid"
       id="grid4855" />
  </sodipodi:namedview>
  <metadata
     id="metadata4850">
    <rdf:RDF>
      <cc:Work
         rdf:about="">
        <dc:format>image/svg+xml</dc:format>
        <dc:type
           rdf:resource="http://purl.org/dc/dcmitype/StillImage" />
        <dc:title></dc:title>
      </cc:Work>
    </rdf:RDF>
  </metadata>
  <g
     inkscape:label="Layer 1"
     inkscape:groupmode="layer"
     id="layer1">
    <flowRoot
       xml:space="preserve"
       id="flowRoot4857"
       style="font-style:normal;font-variant:normal;font-weight:normal;font-stretch:normal;font-size:40px;line-height:1.25;font-family:'Franklin Gothic Heavy';-inkscape-font-specification:'Franklin Gothic Heavy, Normal';font-variant-ligatures:normal;font-variant-caps:normal;font-variant-numeric:normal;font-feature-settings:normal;text-align:center;letter-spacing:0px;word-spacing:0px;writing-mode:lr-tb;text-anchor:middle;fill:#007bff;fill-opacity:1;stroke:none"
       transform="matrix(0.26458333,0,0,0.26458333,102.80952,47.625)"><flowRegion
         id="flowRegion4859"
         style="font-style:normal;font-variant:normal;font-weight:normal;font-stretch:normal;font-size:40px;font-family:'Franklin Gothic Heavy';-inkscape-font-specification:'Franklin Gothic Heavy, Normal';font-variant-ligatures:normal;font-variant-caps:normal;font-variant-numeric:normal;font-feature-settings:normal;text-align:center;writing-mode:lr-tb;text-anchor:middle;fill:#007bff;fill-opacity:1"><rect
           id="rect4861"
           width="360"
           height="120.00001"
           x="-140"
           y="182.51968"
           style="font-style:normal;font-variant:normal;font-weight:normal;font-stretch:normal;font-size:40px;font-family:'Franklin Gothic Heavy';-inkscape-font-specification:'Franklin Gothic Heavy, Normal';font-variant-ligatures:normal;font-variant-caps:normal;font-variant-numeric:normal;font-feature-settings:normal;text-align:center;writing-mode:lr-tb;text-anchor:middle;fill:#007bff;fill-opacity:1" /></flowRegion><flowPara
         id="flowPara4865">&lt;Energized I      /&gt;</flowPara></flowRoot>    <g
       style="overflow:visible"
       id="g4898"
       transform="matrix(0.09527151,0,0,0.09527151,84.403887,108.65099)">
      <g
         id="g4881">
	<g
   id="g4879">
		<path
   id="path4867"
   d="M 51.464,0 H 75.336 V 110.496 C 63.09,112.821 54.099,113.751 44.334,113.751 15.191,113.75 0,100.576 0,75.308 0,50.971 16.122,35.161 41.078,35.161 c 3.875,0 6.82,0.309 10.386,1.239 z m 0,55.62 c -2.79,-0.929 -5.115,-1.239 -8.06,-1.239 -12.091,0 -19.067,7.441 -19.067,20.461 0,12.712 6.666,19.687 18.912,19.687 2.634,0 4.805,-0.155 8.215,-0.619 z"
   inkscape:connector-curvature="0"
   style="fill:#092e20" />

		<path
   id="path4869"
   d="m 113.312,36.865 v 55.338 c 0,19.067 -1.395,28.212 -5.58,36.118 -3.876,7.597 -8.992,12.401 -19.532,17.672 L 66.033,135.452 c 10.541,-4.96 15.656,-9.299 18.911,-15.967 3.411,-6.82 4.497,-14.726 4.497,-35.497 V 36.865 Z M 89.441,0.127 h 23.871 V 24.619 H 89.441 Z"
   inkscape:connector-curvature="0"
   style="fill:#092e20" />

		<path
   id="path4871"
   d="m 127.731,42.29 c 10.542,-4.959 20.617,-7.129 31.623,-7.129 12.246,0 20.306,3.254 23.872,9.61 2.014,3.565 2.634,8.215 2.634,18.137 v 48.517 c -10.697,1.55 -24.182,2.636 -34.102,2.636 -19.996,0 -28.988,-6.978 -28.988,-22.478 0,-16.742 11.936,-24.492 41.234,-26.973 v -5.27 c 0,-4.34 -2.17,-5.889 -8.216,-5.889 -8.835,0 -18.756,2.48 -28.058,7.286 V 42.29 Z m 37.358,37.978 c -15.812,1.55 -20.927,4.031 -20.927,10.231 0,4.65 2.946,6.82 9.456,6.82 3.566,0 6.82,-0.309 11.471,-1.084 z"
   inkscape:connector-curvature="0"
   style="fill:#092e20" />

		<path
   id="path4873"
   d="m 197.487,40.585 c 14.105,-3.72 25.731,-5.424 37.512,-5.424 12.246,0 21.082,2.789 26.354,8.215 4.96,5.114 6.509,10.694 6.509,22.632 V 112.82 H 243.99 V 66.938 c 0,-9.145 -3.1,-12.557 -11.625,-12.557 -3.255,0 -6.2,0.31 -11.007,1.705 v 56.734 h -23.871 z"
   inkscape:connector-curvature="0"
   style="fill:#092e20" />

		<path
   id="path4875"
   d="m 277.142,125.842 c 8.372,4.34 16.742,6.354 25.577,6.354 15.655,0 22.321,-6.354 22.321,-21.546 0,-0.155 0,-0.31 0,-0.465 -4.65,2.324 -9.301,3.255 -15.5,3.255 -20.927,0 -34.26,-13.796 -34.26,-35.652 0,-27.129 19.688,-42.473 54.564,-42.473 10.232,0 19.688,1.084 31.159,3.409 l -8.174,17.219 c -6.356,-1.24 -0.509,-0.166 -5.312,-0.631 v 2.481 l 0.309,10.074 0.154,13.022 c 0.155,3.254 0.155,6.51 0.311,9.765 0,2.945 0,4.341 0,6.511 0,20.462 -1.705,30.072 -6.82,37.977 -7.441,11.627 -20.307,17.362 -38.598,17.362 -9.301,0 -17.36,-1.395 -25.732,-4.651 v -22.011 z m 47.434,-71.306 c -0.31,0 -0.619,0 -0.774,0 h -1.706 c -4.649,-0.155 -10.074,1.084 -13.796,3.409 -5.734,3.256 -8.681,9.147 -8.681,17.517 0,11.937 5.892,18.757 16.432,18.757 3.255,0 5.891,-0.621 8.99,-1.55 v -1.706 -6.509 c 0,-2.79 -0.154,-5.892 -0.154,-9.146 l -0.154,-11.005 -0.156,-7.906 v -1.861 z"
   inkscape:connector-curvature="0"
   style="fill:#092e20" />

		<path
   id="path4877"
   d="m 398.062,34.85 c 23.871,0 38.443,15.037 38.443,39.373 0,24.958 -15.19,40.614 -39.373,40.614 -23.873,0 -38.599,-15.037 -38.599,-39.218 10e-4,-25.114 15.193,-40.769 39.529,-40.769 z m -0.467,60.764 c 9.147,0 14.573,-7.596 14.573,-20.772 0,-13.02 -5.271,-20.771 -14.415,-20.771 -9.457,0 -14.884,7.597 -14.884,20.771 10e-4,13.177 5.427,20.772 14.726,20.772 z"
   inkscape:connector-curvature="0"
   style="fill:#092e20" />

	</g>

</g>
    </g>
    <flowRoot
       xml:space="preserve"
       id="flowRoot5479"
       style="fill:black;fill-opacity:1;stroke:none;font-family:sans-serif;font-style:normal;font-weight:normal;font-size:40px;line-height:1.25;letter-spacing:0px;word-spacing:0px"><flowRegion
         id="flowRegion5481"><rect
           id="rect5483"
           width="60"
           height="50"
           x="215"
           y="282.51968" /></flowRegion><flowPara
         id="flowPara5485"></flowPara></flowRoot>    <g
       style="fill:#007bff;fill-opacity:1"
       id="g5511"
       transform="matrix(0,0.75313407,-0.77054053,0,143.2974,94.999909)">
      <path
         id="path5500"
         d="m 5,16 c 0,0 -1,0 -1,-1 0,-1 1,-4 6,-4 5,0 6,3 6,4 0,1 -1,1 -1,1 z m 5,-6 a 3,3 0 1 0 0,-6 3,3 0 0 0 0,6 z"
         inkscape:connector-curvature="0"
         style="clip-rule:evenodd;fill:#007bff;fill-opacity:1;fill-rule:evenodd" />
    </g>
    <flowRoot
       xml:space="preserve"
       id="flowRoot5513"
       style="fill:black;fill-opacity:1;stroke:none;font-family:sans-serif;font-style:normal;font-weight:normal;font-size:40px;line-height:1.25;letter-spacing:0px;word-spacing:0px"><flowRegion
         id="flowRegion5515"><rect
           id="rect5517"
           width="35"
           height="50"
           x="550"
           y="342.51968" /></flowRegion><flowPara
         id="flowPara5519"></flowPara></flowRoot>  </g>
</svg>
