<?xml version="1.0" encoding="UTF-8" standalone="no"?>
<!-- Created with Inkscape (http://www.inkscape.org/) -->

<svg
   xmlns:dc="http://purl.org/dc/elements/1.1/"
   xmlns:cc="http://creativecommons.org/ns#"
   xmlns:rdf="http://www.w3.org/1999/02/22-rdf-syntax-ns#"
   xmlns:svg="http://www.w3.org/2000/svg"
   xmlns="http://www.w3.org/2000/svg"
   xmlns:sodipodi="http://sodipodi.sourceforge.net/DTD/sodipodi-0.dtd"
   xmlns:inkscape="http://www.inkscape.org/namespaces/inkscape"
   width="83.06572mm"
   height="24.891762mm"
   viewBox="0 0 83.06572 24.891762"
   version="1.1"
   id="svg4853"
   sodipodi:docname="logo.svg"
   inkscape:version="0.92.3 (2405546, 2018-03-11)">
  <defs
     id="defs4847" />
  <sodipodi:namedview
     id="base"
     pagecolor="#ffffff"
     bordercolor="#666666"
     borderopacity="1.0"
     inkscape:pageopacity="0.0"
     inkscape:pageshadow="2"
     inkscape:zoom="1.979899"
     inkscape:cx="28.957115"
     inkscape:cy="116.65375"
     inkscape:document-units="mm"
     inkscape:current-layer="layer1"
     showgrid="true"
     inkscape:snap-text-baseline="false"
     inkscape:window-width="1920"
     inkscape:window-height="1017"
     inkscape:window-x="1912"
     inkscape:window-y="1019"
     inkscape:window-maximized="1"
     inkscape:object-paths="true"
     fit-margin-top="0"
     fit-margin-left="0"
     fit-margin-right="0"
     fit-margin-bottom="0">
    <inkscape:grid
       type="xygrid"
       id="grid4855"
       originx="-63.467137"
       originy="-173.81972" />
  </sodipodi:namedview>
  <metadata
     id="metadata4850">
    <rdf:RDF>
      <cc:Work
         rdf:about="">
        <dc:format>image/svg+xml</dc:format>
        <dc:type
           rdf:resource="http://purl.org/dc/dcmitype/StillImage" />
        <dc:title></dc:title>
      </cc:Work>
    </rdf:RDF>
  </metadata>
  <g
     inkscape:label="Layer 1"
     inkscape:groupmode="layer"
     id="layer1"
     transform="translate(-63.467139,-98.288514)">
    <g
       style="overflow:visible"
       id="g4898"
       transform="matrix(0.09527151,0,0,0.09527151,84.206755,108.65099)">
      <g
         id="g4881">
        <g
           id="g4879">
          <path
             id="path4867"
             d="M 51.464,0 H 75.336 V 110.496 C 63.09,112.821 54.099,113.751 44.334,113.751 15.191,113.75 0,100.576 0,75.308 0,50.971 16.122,35.161 41.078,35.161 c 3.875,0 6.82,0.309 10.386,1.239 z m 0,55.62 c -2.79,-0.929 -5.115,-1.239 -8.06,-1.239 -12.091,0 -19.067,7.441 -19.067,20.461 0,12.712 6.666,19.687 18.912,19.687 2.634,0 4.805,-0.155 8.215,-0.619 z"
             inkscape:connector-curvature="0"
             style="fill:#092e20" />
          <path
             id="path4869"
             d="m 113.312,36.865 v 55.338 c 0,19.067 -1.395,28.212 -5.58,36.118 -3.876,7.597 -8.992,12.401 -19.532,17.672 L 66.033,135.452 c 10.541,-4.96 15.656,-9.299 18.911,-15.967 3.411,-6.82 4.497,-14.726 4.497,-35.497 V 36.865 Z M 89.441,0.127 h 23.871 V 24.619 H 89.441 Z"
             inkscape:connector-curvature="0"
             style="fill:#092e20" />
          <path
             id="path4871"
             d="m 127.731,42.29 c 10.542,-4.959 20.617,-7.129 31.623,-7.129 12.246,0 20.306,3.254 23.872,9.61 2.014,3.565 2.634,8.215 2.634,18.137 v 48.517 c -10.697,1.55 -24.182,2.636 -34.102,2.636 -19.996,0 -28.988,-6.978 -28.988,-22.478 0,-16.742 11.936,-24.492 41.234,-26.973 v -5.27 c 0,-4.34 -2.17,-5.889 -8.216,-5.889 -8.835,0 -18.756,2.48 -28.058,7.286 V 42.29 Z m 37.358,37.978 c -15.812,1.55 -20.927,4.031 -20.927,10.231 0,4.65 2.946,6.82 9.456,6.82 3.566,0 6.82,-0.309 11.471,-1.084 z"
             inkscape:connector-curvature="0"
             style="fill:#092e20" />
          <path
             id="path4873"
             d="m 197.487,40.585 c 14.105,-3.72 25.731,-5.424 37.512,-5.424 12.246,0 21.082,2.789 26.354,8.215 4.96,5.114 6.509,10.694 6.509,22.632 V 112.82 H 243.99 V 66.938 c 0,-9.145 -3.1,-12.557 -11.625,-12.557 -3.255,0 -6.2,0.31 -11.007,1.705 v 56.734 h -23.871 z"
             inkscape:connector-curvature="0"
             style="fill:#092e20" />
          <path
             id="path4875"
             d="m 277.142,125.842 c 8.372,4.34 16.742,6.354 25.577,6.354 15.655,0 22.321,-6.354 22.321,-21.546 0,-0.155 0,-0.31 0,-0.465 -4.65,2.324 -9.301,3.255 -15.5,3.255 -20.927,0 -34.26,-13.796 -34.26,-35.652 0,-27.129 19.688,-42.473 54.564,-42.473 10.232,0 19.688,1.084 31.159,3.409 l -8.174,17.219 c -6.356,-1.24 -0.509,-0.166 -5.312,-0.631 v 2.481 l 0.309,10.074 0.154,13.022 c 0.155,3.254 0.155,6.51 0.311,9.765 0,2.945 0,4.341 0,6.511 0,20.462 -1.705,30.072 -6.82,37.977 -7.441,11.627 -20.307,17.362 -38.598,17.362 -9.301,0 -17.36,-1.395 -25.732,-4.651 v -22.011 z m 47.434,-71.306 c -0.31,0 -0.619,0 -0.774,0 h -1.706 c -4.649,-0.155 -10.074,1.084 -13.796,3.409 -5.734,3.256 -8.681,9.147 -8.681,17.517 0,11.937 5.892,18.757 16.432,18.757 3.255,0 5.891,-0.621 8.99,-1.55 v -1.706 -6.509 c 0,-2.79 -0.154,-5.892 -0.154,-9.146 l -0.154,-11.005 -0.156,-7.906 v -1.861 z"
             inkscape:connector-curvature="0"
             style="fill:#092e20" />
          <path
             id="path4877"
             d="m 398.062,34.85 c 23.871,0 38.443,15.037 38.443,39.373 0,24.958 -15.19,40.614 -39.373,40.614 -23.873,0 -38.599,-15.037 -38.599,-39.218 10e-4,-25.114 15.193,-40.769 39.529,-40.769 z m -0.467,60.764 c 9.147,0 14.573,-7.596 14.573,-20.772 0,-13.02 -5.271,-20.771 -14.415,-20.771 -9.457,0 -14.884,7.597 -14.884,20.771 10e-4,13.177 5.427,20.772 14.726,20.772 z"
             inkscape:connector-curvature="0"
             style="fill:#092e20" />
        </g>
      </g>
    </g>
    <flowRoot
       xml:space="preserve"
       id="flowRoot5479"
       style="font-style:normal;font-weight:normal;font-size:40px;line-height:1.25;font-family:sans-serif;letter-spacing:0px;word-spacing:0px;fill:#000000;fill-opacity:1;stroke:none"><flowRegion
         id="flowRegion5481"><rect
           id="rect5483"
           width="60"
           height="50"
           x="215"
           y="282.51968" /></flowRegion><flowPara
         id="flowPara5485" /></flowRoot>    <flowRoot
       xml:space="preserve"
       id="flowRoot5513"
       style="font-style:normal;font-weight:normal;font-size:40px;line-height:1.25;font-family:sans-serif;letter-spacing:0px;word-spacing:0px;fill:#000000;fill-opacity:1;stroke:none"><flowRegion
         id="flowRegion5515"><rect
           id="rect5517"
           width="35"
           height="50"
           x="550"
           y="342.51968" /></flowRegion><flowPara
         id="flowPara5519" /></flowRoot>    <g
       id="g5690"
       transform="translate(0.529171)">
      <path
         d="m 97.065082,99.115337 -0.0517,1.410763 -0.0982,-0.005 q -0.27905,-0.0155 -0.39791,-0.0155 -0.48059,0 -0.57878,0.1912 0.58912,0.48576 0.58912,1.17306 0,0.80615 -0.64079,1.21439 -0.63562,0.40308 -1.73116,0.40308 -0.0258,0 -0.26872,-0.0104 -0.22738,-0.0103 -0.23771,-0.0103 -0.50126,0 -0.50126,0.25838 0,0.22738 0.44441,0.24288 l 1.68982,0.0724 q 0.92501,0.0413 1.35393,0.51676 0.43408,0.47542 0.43408,1.11105 0,0.75447 -0.64596,1.22989 -0.64078,0.4806 -2.50114,0.4806 -2.868038,0 -2.868038,-1.31775 0,-0.71831 0.759648,-1.00253 -0.490931,-0.34623 -0.490931,-0.82165 0,-0.77515 1.007691,-1.16789 -0.842326,-0.3669 -0.842326,-1.21956 0,-0.78032 0.682126,-1.2144 0.68213,-0.43408 1.87069,-0.43408 0.5426,0 0.98702,0.10852 0.18087,-1.235067 1.30741,-1.235067 0.25839,0 0.72864,0.04134 z m -3.0179,3.395143 q 0.59944,0 0.59944,-0.63562 0,-0.65112 -0.61495,-0.65112 -0.60978,0 -0.60978,0.66145 0,0.62529 0.62529,0.62529 z m -0.5271,2.9869 q -0.11369,-0.005 -0.22738,-0.005 -0.53227,0 -0.53227,0.33073 0,0.30489 0.40308,0.39274 0.40824,0.0879 1.08521,0.0879 0.64078,0 0.82165,-0.10852 0.18604,-0.10852 0.18604,-0.29973 0,-0.13436 -0.0827,-0.22737 -0.0827,-0.0878 -0.39274,-0.10336 z"
         style="font-style:normal;font-variant:normal;font-weight:normal;font-stretch:normal;font-size:medium;line-height:1.25;font-family:'Franklin Gothic Heavy';-inkscape-font-specification:'Franklin Gothic Heavy, Normal';font-variant-ligatures:normal;font-variant-caps:normal;font-variant-numeric:normal;font-feature-settings:normal;text-align:center;letter-spacing:0px;word-spacing:0px;writing-mode:lr-tb;text-anchor:middle;fill:#007bff;fill-opacity:1;stroke:none;stroke-width:0.26458332"
         id="path5570"
         inkscape:connector-curvature="0" />
      <path
         d="m 67.521666,99.048157 v 1.446943 l -3.043741,1.53479 3.043741,1.53479 v 1.4366 l -4.583698,-2.36678 v -1.21956 z"
         style="font-style:normal;font-variant:normal;font-weight:normal;font-stretch:normal;font-size:medium;line-height:1.25;font-family:'Franklin Gothic Heavy';-inkscape-font-specification:'Franklin Gothic Heavy, Normal';font-variant-ligatures:normal;font-variant-caps:normal;font-variant-numeric:normal;font-feature-settings:normal;text-align:center;letter-spacing:0px;word-spacing:0px;writing-mode:lr-tb;text-anchor:middle;fill:#007bff;fill-opacity:1;stroke:none;stroke-width:0.26458332"
         id="path5560"
         inkscape:connector-curvature="0" />
      <path
         d="m 74.353291,103.8799 v 1.68466 h -5.307169 v -7.053838 h 5.307169 v 1.627808 h -3.183268 v 1.02319 h 2.573486 v 1.5658 h -2.573486 v 1.15238 z"
         style="font-style:normal;font-variant:normal;font-weight:normal;font-stretch:normal;font-size:medium;line-height:1.25;font-family:'Franklin Gothic Heavy';-inkscape-font-specification:'Franklin Gothic Heavy, Normal';font-variant-ligatures:normal;font-variant-caps:normal;font-variant-numeric:normal;font-feature-settings:normal;text-align:center;letter-spacing:0px;word-spacing:0px;writing-mode:lr-tb;text-anchor:middle;fill:#007bff;fill-opacity:1;stroke:none;stroke-width:0.26458332"
         id="path5562"
         inkscape:connector-curvature="0" />
      <path
         d="m 80.265075,105.56456 h -2.06189 v -3.3073 q 0,-0.40824 -0.129191,-0.52193 -0.124023,-0.11369 -0.315226,-0.11369 -0.563273,0 -0.563273,0.78549 v 3.15743 h -2.06189 v -5.2555 h 1.912028 v 0.74414 q 0.423747,-0.85266 1.51412,-0.85266 0.573608,0 0.966349,0.22221 0.397909,0.21704 0.568441,0.56844 0.170532,0.34623 0.170532,1.20923 z"
         style="font-style:normal;font-variant:normal;font-weight:normal;font-stretch:normal;font-size:medium;line-height:1.25;font-family:'Franklin Gothic Heavy';-inkscape-font-specification:'Franklin Gothic Heavy, Normal';font-variant-ligatures:normal;font-variant-caps:normal;font-variant-numeric:normal;font-feature-settings:normal;text-align:center;letter-spacing:0px;word-spacing:0px;writing-mode:lr-tb;text-anchor:middle;fill:#007bff;fill-opacity:1;stroke:none;stroke-width:0.26458332"
         id="path5564"
         inkscape:connector-curvature="0" />
      <path
         d="m 84.828104,103.67836 1.922363,0.1292 q -0.170532,0.77514 -0.873332,1.32291 -0.697631,0.54261 -1.891357,0.54261 -1.328084,0 -2.118734,-0.76482 -0.790649,-0.76997 -0.790649,-1.90686 0,-1.17822 0.780314,-1.98954 0.780314,-0.81132 2.08256,-0.81132 1.260905,0 2.036052,0.76481 0.780314,0.76481 0.780314,2.08256 0,0.10852 -0.0052,0.29973 H 83.23127 q 0.01033,0.49609 0.1757,0.73897 0.165364,0.23771 0.630452,0.23771 0.671794,0 0.790649,-0.64596 z m -0.134359,-1.36425 q -0.0052,-0.53227 -0.217041,-0.71314 -0.206706,-0.18603 -0.516764,-0.18603 -0.733805,0 -0.733805,0.89917 z"
         style="font-style:normal;font-variant:normal;font-weight:normal;font-stretch:normal;font-size:medium;line-height:1.25;font-family:'Franklin Gothic Heavy';-inkscape-font-specification:'Franklin Gothic Heavy, Normal';font-variant-ligatures:normal;font-variant-caps:normal;font-variant-numeric:normal;font-feature-settings:normal;text-align:center;letter-spacing:0px;word-spacing:0px;writing-mode:lr-tb;text-anchor:middle;fill:#007bff;fill-opacity:1;stroke:none;stroke-width:0.26458332"
         id="path5566"
         inkscape:connector-curvature="0" />
      <path
         d="m 89.530659,105.56456 h -1.97404 v -5.2555 h 1.715658 v 1.08521 q 0.294556,-1.18339 1.369425,-1.18339 0.108521,0 0.299724,0.0207 v 1.83451 q -0.217041,-0.0517 -0.387574,-0.0517 -1.023193,0 -1.023193,1.14205 z"
         style="font-style:normal;font-variant:normal;font-weight:normal;font-stretch:normal;font-size:medium;line-height:1.25;font-family:'Franklin Gothic Heavy';-inkscape-font-specification:'Franklin Gothic Heavy, Normal';font-variant-ligatures:normal;font-variant-caps:normal;font-variant-numeric:normal;font-feature-settings:normal;text-align:center;letter-spacing:0px;word-spacing:0px;writing-mode:lr-tb;text-anchor:middle;fill:#007bff;fill-opacity:1;stroke:none;stroke-width:0.26458332"
         id="path5568"
         inkscape:connector-curvature="0" />
      <path
         d="m 99.685082,98.288514 v 1.632977 h -2.06189 v -1.632977 z m 0,2.020546 v 5.2555 h -2.06189 v -5.2555 z"
         style="font-style:normal;font-variant:normal;font-weight:normal;font-stretch:normal;font-size:medium;line-height:1.25;font-family:'Franklin Gothic Heavy';-inkscape-font-specification:'Franklin Gothic Heavy, Normal';font-variant-ligatures:normal;font-variant-caps:normal;font-variant-numeric:normal;font-feature-settings:normal;text-align:center;letter-spacing:0px;word-spacing:0px;writing-mode:lr-tb;text-anchor:middle;fill:#007bff;fill-opacity:1;stroke:none;stroke-width:0.26458332"
         id="path5572"
         inkscape:connector-curvature="0" />
      <path
         d="m 105.03359,104.25714 v 1.30742 h -4.63538 v -1.14205 l 2.21692,-2.84737 q -0.39791,0.0155 -0.53744,0.0155 h -1.49861 v -1.28157 h 4.37182 v 1.10587 l -2.26342,2.85254 0.27388,-0.005 q 0.0827,-0.005 0.14986,-0.005 z"
         style="font-style:normal;font-variant:normal;font-weight:normal;font-stretch:normal;font-size:medium;line-height:1.25;font-family:'Franklin Gothic Heavy';-inkscape-font-specification:'Franklin Gothic Heavy, Normal';font-variant-ligatures:normal;font-variant-caps:normal;font-variant-numeric:normal;font-feature-settings:normal;text-align:center;letter-spacing:0px;word-spacing:0px;writing-mode:lr-tb;text-anchor:middle;fill:#007bff;fill-opacity:1;stroke:none;stroke-width:0.26458332"
         id="path5574"
         inkscape:connector-curvature="0" />
      <path
         d="m 109.21938,103.67836 1.92236,0.1292 q -0.17053,0.77514 -0.87333,1.32291 -0.69763,0.54261 -1.89136,0.54261 -1.32808,0 -2.11873,-0.76482 -0.79065,-0.76997 -0.79065,-1.90686 0,-1.17822 0.78031,-1.98954 0.78032,-0.81132 2.08256,-0.81132 1.26091,0 2.03605,0.76481 0.78032,0.76481 0.78032,2.08256 0,0.10852 -0.005,0.29973 h -3.51916 q 0.0103,0.49609 0.1757,0.73897 0.16536,0.23771 0.63045,0.23771 0.67179,0 0.79065,-0.64596 z m -0.13436,-1.36425 q -0.005,-0.53227 -0.21704,-0.71314 -0.20671,-0.18603 -0.51677,-0.18603 -0.7338,0 -0.7338,0.89917 z"
         style="font-style:normal;font-variant:normal;font-weight:normal;font-stretch:normal;font-size:medium;line-height:1.25;font-family:'Franklin Gothic Heavy';-inkscape-font-specification:'Franklin Gothic Heavy, Normal';font-variant-ligatures:normal;font-variant-caps:normal;font-variant-numeric:normal;font-feature-settings:normal;text-align:center;letter-spacing:0px;word-spacing:0px;writing-mode:lr-tb;text-anchor:middle;fill:#007bff;fill-opacity:1;stroke:none;stroke-width:0.26458332"
         id="path5576"
         inkscape:connector-curvature="0" />
      <path
         d="m 117.07936,105.56456 h -1.9327 v -0.69764 q -0.42891,0.80616 -1.41593,0.80616 -0.90951,0 -1.47795,-0.70797 -0.56327,-0.71314 -0.56327,-2.06706 0,-1.26607 0.56844,-2.01021 0.56844,-0.74414 1.50379,-0.74414 0.78031,0 1.28674,0.59428 v -2.227258 h 2.03088 z m -2.03088,-3.37964 q 0,-0.70797 -0.58394,-0.70797 -0.40825,0 -0.53744,0.44958 -0.12402,0.44959 -0.12402,1.10071 0,1.27641 0.65112,1.27641 0.24805,0 0.41858,-0.20154 0.1757,-0.20153 0.1757,-0.61495 z"
         style="font-style:normal;font-variant:normal;font-weight:normal;font-stretch:normal;font-size:medium;line-height:1.25;font-family:'Franklin Gothic Heavy';-inkscape-font-specification:'Franklin Gothic Heavy, Normal';font-variant-ligatures:normal;font-variant-caps:normal;font-variant-numeric:normal;font-feature-settings:normal;text-align:center;letter-spacing:0px;word-spacing:0px;writing-mode:lr-tb;text-anchor:middle;fill:#007bff;fill-opacity:1;stroke:none;stroke-width:0.26458332"
         id="path5578"
         inkscape:connector-curvature="0" />
      <path
         d="m 123.05316,98.510722 v 7.053838 h -2.16525 v -7.053838 z"
         style="font-style:normal;font-variant:normal;font-weight:normal;font-stretch:normal;font-size:medium;line-height:1.25;font-family:'Franklin Gothic Heavy';-inkscape-font-specification:'Franklin Gothic Heavy, Normal';font-variant-ligatures:normal;font-variant-caps:normal;font-variant-numeric:normal;font-feature-settings:normal;text-align:center;letter-spacing:0px;word-spacing:0px;writing-mode:lr-tb;text-anchor:middle;fill:#007bff;fill-opacity:1;stroke:none;stroke-width:0.26458332"
         id="path5580"
         inkscape:connector-curvature="0" />
      <path
         d="m 140.2521,98.510722 -4.76973,8.712648 h -1.0387 l 4.75423,-8.712648 z"
         style="font-style:normal;font-variant:normal;font-weight:normal;font-stretch:normal;font-size:medium;line-height:1.25;font-family:'Franklin Gothic Heavy';-inkscape-font-specification:'Franklin Gothic Heavy, Normal';font-variant-ligatures:normal;font-variant-caps:normal;font-variant-numeric:normal;font-feature-settings:normal;text-align:center;letter-spacing:0px;word-spacing:0px;writing-mode:lr-tb;text-anchor:middle;fill:#007bff;fill-opacity:1;stroke:none;stroke-width:0.26458332"
         id="path5584"
         inkscape:connector-curvature="0" />
      <path
         d="m 141.41999,105.00128 v -1.44694 l 3.04374,-1.52962 -3.04374,-1.53996 v -1.436603 l 4.5837,2.366783 v 1.22473 z"
         style="font-style:normal;font-variant:normal;font-weight:normal;font-stretch:normal;font-size:medium;line-height:1.25;font-family:'Franklin Gothic Heavy';-inkscape-font-specification:'Franklin Gothic Heavy, Normal';font-variant-ligatures:normal;font-variant-caps:normal;font-variant-numeric:normal;font-feature-settings:normal;text-align:center;letter-spacing:0px;word-spacing:0px;writing-mode:lr-tb;text-anchor:middle;fill:#007bff;fill-opacity:1;stroke:none;stroke-width:0.26458332"
         id="path5586"
         inkscape:connector-curvature="0" />
      <g
         transform="translate(-8.395438)"
         id="g5605">
        <path
           style="font-style:normal;font-variant:normal;font-weight:normal;font-stretch:normal;font-size:medium;line-height:1.25;font-family:'Franklin Gothic Heavy';-inkscape-font-specification:'Franklin Gothic Heavy, Normal';font-variant-ligatures:normal;font-variant-caps:normal;font-variant-numeric:normal;font-feature-settings:normal;text-align:center;letter-spacing:0px;word-spacing:0px;writing-mode:lr-tb;text-anchor:middle;fill:#007bff;fill-opacity:1;stroke:none;stroke-width:0.22530195"
           sodipodi:nodetypes="ccssscsc"
           inkscape:connector-curvature="0"
           id="path5582"
           d="m 132.67333,105.56456 v -7.053838 h 1.97848 c 0.85934,0 1.50259,0.351401 1.92977,1.0542 0.42717,0.702798 0.64075,1.515838 0.64075,2.439128 0,1.0542 -0.22982,1.91203 -0.68947,2.57349 -0.45715,0.65801 -1.05169,0.98702 -1.78363,0.98702 z" />
        <circle
           style="fill:#007bff;fill-opacity:1;stroke-width:0.21647482"
           id="path5523"
           cx="140.41217"
           cy="102.12363"
           r="2.7059352" />
      </g>
    </g>
  </g>
</svg>
